<svg xmlns="http://www.w3.org/2000/svg" height="55" width="75" viewBox="0 -8 40 40" fill="black">
  <!-- Shuffle Icon -->
  <path d="M20.086 7h-1.518a5 5 0 0 0-3.826 1.78l-7.346 8.73a7 7 0 0 1-5.356 2.494H1v-2h1.04a5 5 0 0 0 3.826-1.781l7.345-8.73A7 7 0 0 1 18.569 5h1.518l-1.298-1.298a1 1 0 0 1 1.414-1.414L23.914 6l-3.712 3.712a1 1 0 1 1-1.414-1.414L20.086 7z"/>
  <path d="M18.788 14.289a1 1 0 0 0 0 1.414L20.086 17h-1.518a5 5 0 0 1-3.826-1.78l-1.403-1.668-1.306 1.554 1.178 1.4A7 7 0 0 0 18.568 19h1.518l-1.298 1.298a1 1 0 1 0 1.414 1.414L23.914 18l-3.712-3.713a1 1 0 0 0-1.414 0zM7.396 6.49l2.023 2.404-1.307"/>
  
  <!-- Sparkle Icon in Top-Left -->
  <g transform="translate(-40, -23) scale(3)">
    <path d="M14 8l1-2 1 2 2 1-2 1-1 2-1-2-2-1 2-1z"/>
  </g>
</svg>

